<svg data-v-1084b650="" xmlns="http://www.w3.org/2000/svg" viewBox="0 0 300 300"><!----> <!----> <rect data-v-1084b650="" fill="#FDF7EC" x="0" y="0" width="300px" height="300px" class="logo-background-square"></rect> <!----> <linearGradient data-v-1084b650="" gradientTransform="rotate(25)" id="9a0a0356-1f4f-34b6-3d30-15fdc17c1f7d" x1="0%" y1="0%" x2="100%" y2="0%"><stop data-v-1084b650="" offset="0%" style="stop-color: rgb(229, 101, 0); stop-opacity: 1;"></stop> <stop data-v-1084b650="" offset="100%" style="stop-color: rgb(235, 197, 29); stop-opacity: 1;"></stop></linearGradient> <g data-v-1084b650="" id="0d524c72-d30b-85ab-c224-a95698e17d37" fill="url(#9a0a0356-1f4f-34b6-3d30-15fdc17c1f7d)" stroke="none" transform="matrix(0.7499999999999998,0,0,0.7499999999999998,37.50000000000003,37.50000000000003)"><svg xmlns="http://www.w3.org/2000/svg" viewBox="0 0 48 48"><path fill-rule="evenodd" clip-rule="evenodd" d="M43 35H29.195c.595 3.301 2.573 5.572 4.401 7H36a1 1 0 1 1 0 2H12a1 1 0 1 1 0-2h2.403c1.827-1.428 3.807-3.699 4.401-7H5a4 4 0 0 1-4-4V8a4 4 0 0 1 4-4h38a4 4 0 0 1 4 4v23a4 4 0 0 1-4 4zm-25.603 7h13.205c-1.595-1.682-3.015-3.976-3.459-7h-6.287c-.444 3.024-1.864 5.318-3.459 7zM45 8a2 2 0 0 0-2-2H5a2 2 0 0 0-2 2v19h42V8zm0 21H3v2a2 2 0 0 0 2 2h38a2 2 0 0 0 2-2v-2zm-21 3a1 1 0 1 1 0-2 1 1 0 1 1 0 2z"></path></svg></g></svg>